<?xml version="1.0" encoding="utf-8"?>
<!-- Generator: Adobe Illustrator 24.1.1, SVG Export Plug-In . SVG Version: 6.00 Build 0)  -->
<svg version="1.1" id="Layer_1" xmlns="http://www.w3.org/2000/svg" xmlns:xlink="http://www.w3.org/1999/xlink" x="0px" y="0px"
	 viewBox="0 0 512 512" style="enable-background:new 0 0 512 512;" xml:space="preserve">
<g id="XMLID_1_">
	<path id="XMLID_9_" d="M366,0H146c-40.1,0-73.7,32.6-73.7,73.7v265.8c0,40.1,32.6,73.7,73.7,73.7H366c40.1,0,73.7-32.6,73.7-73.7
		V73.7C438.8,32.6,406.1,0,366,0z M191.7,27h128.7c4.7,0,9.3,3.7,9.3,9.3s-3.7,9.3-9.3,9.3H191.7c-4.7,0-9.3-3.7-9.3-9.3
		S187,27,191.7,27z M155.3,375.8c-17.7,0-31.7-14-31.7-31.7c0-17.7,14-31.7,31.7-31.7s31.7,14,31.7,31.7
		C187,361.9,173,375.8,155.3,375.8z M356.7,375.8c-17.7,0-31.7-14-31.7-31.7c0-17.7,14-31.7,31.7-31.7c17.7,0,31.7,14,31.7,31.7
		C388.4,361.9,374.4,375.8,356.7,375.8z M402.4,201.4c0,10.3-8.4,18.7-18.7,18.7H128.2c-10.3,0-18.7-8.4-18.7-18.7v-110
		c0-10.3,8.4-18.7,18.7-18.7h256.5c10.3,0,18.7,8.4,18.7,18.7v110H402.4z M413.6,485l-56.9-55c-6.5-6.5-16.8-5.6-22.4,0
		s-5.6,16.8,0,22.4l6.5,6.5H171.1l6.5-6.5c6.5-6.5,6.5-15.9,0-22.4c-6.5-6.5-15.9-6.5-22.4,0l-56.9,55c-6.5,6.5-6.5,15.9,0,22.4
		c2.8,3.7,7.5,4.7,11.2,4.7c3.7,0,8.4-1.9,11.2-4.7l16.8-15.9h236.9l16.8,15.9c2.8,2.8,7.5,4.7,11.2,4.7c4.7,0,8.4-1.9,11.2-4.7
		C420.1,501.7,420.1,491.5,413.6,485L413.6,485z"/>
</g>
</svg>
